# xmcd CD Database Entry
#
# Track frame offsets:
# 150
# 29820
# 52283
# 75248
# 116615
# 128737
# 149444
# 167417
# 184846
# 220362
# 257808
# 281872
# 313043
#
# Disc length: 4422 seconds
#
# Revision: 3
# Processed by: cddbd v1.4b41PL1 Copyright (c) Steve Scherf et al.
# Submitted via: tcd 2.0b
#
DISCID=c811440d
DTITLE=Elton John - An Evening Solo
DYEAR=1900
DGENRE=
TTITLE0=The One
TTITLE1=Amazes Me
TTITLE2=Mona Lisas And Mad Hatters
TTITLE3=Piano Solo - Take Me To The Pilot
TTITLE4=Friends
TTITLE5=Recover Your Soul
TTITLE6=Sorry Seems To Be The Hardest Word
TTITLE7=Blue Eyes
TTITLE8=Levon
TTITLE9=Don't Let The Sun Go Down On Me
TTITLE10=Circle Of Life
TTITLE11=Bennie And The Jets
TTITLE12=The Last Song
EXTD=Live in Roanoke 2/19/1999
EXTT0=
EXTT1=
EXTT2=
EXTT3=
EXTT4=
EXTT5=
EXTT6=
EXTT7=
EXTT8=
EXTT9=
EXTT10=
EXTT11=
EXTT12=
PLAYORDER=
